<svg id="stroke" xmlns="http://www.w3.org/2000/svg" viewBox="0 0 340 340"><path d="M149.678,322.114a3.44,3.44,0,0,0,.62-.063q.087-.015.174-.036c.049-.011.1-.017.148-.031,1.645-.46,40.5-11.582,59.406-39.266l0-.007a4.037,4.037,0,0,0,.606-1.967V133.3l26.618,152.173a5.964,5.964,0,0,1-4.821,6.893l-22.82,4.064a3.5,3.5,0,0,0,1.227,6.892l22.821-4.064a12.975,12.975,0,0,0,10.488-14.994L210.636,92.676V47.923a12.167,12.167,0,0,0-12.3-12.166L84.6,37.021,185.737,24.927a5.988,5.988,0,0,1,5.757,2.753,3.5,3.5,0,1,0,5.931-3.717,13.015,13.015,0,0,0-12.52-5.986L19.44,37.763A12.2,12.2,0,0,0,7.756,49.907v260.04a12.181,12.181,0,0,0,12.167,12.167H149.678Zm9.36-10.542a25.315,25.315,0,0,0,2.658-12.093,28.271,28.271,0,0,0-5.08-14.752,214.667,214.667,0,0,1,44-1.176C188.549,297.951,170.364,306.988,159.038,311.572ZM14.756,309.947V49.907a5.184,5.184,0,0,1,5.11-5.166l178.546-1.984a5.07,5.07,0,0,1,3.69,1.493,5.129,5.129,0,0,1,1.534,3.673V276.786a218.078,218.078,0,0,0-54.267,1.893,3.5,3.5,0,0,0-1.808,6.057c.068.063,6.874,6.345,7.142,15.046.16,5.193-2.041,10.345-6.542,15.332H19.923A5.173,5.173,0,0,1,14.756,309.947Z" id="id_129" style="fill: rgb(69, 54, 201);"></path><path d="M278.988,235.087c6.684-.685,11.29-7.134,10.341-13.785L265.806,56.534a34.653,34.653,0,0,0-6.473-15.729l-6.156-8.283a3.5,3.5,0,0,0-6.091.87l-3.592,9.674a34.665,34.665,0,0,0-1.814,16.912L265.2,224.746C265.663,227.968,269.584,236.051,278.988,235.087ZM278,228.158c-3.973.625-5.671-3.03-5.867-4.4l-.92-6.446h.161a37.392,37.392,0,0,0,10.112-1.421l.914,6.4A5.219,5.219,0,0,1,278,228.158ZM250.057,45.5l1.347-3.63,2.31,3.107a27.631,27.631,0,0,1,5.162,12.543l21.609,151.36a30.12,30.12,0,0,1-10.276,1.4l-21.6-151.3A27.627,27.627,0,0,1,250.057,45.5Z" id="id_130" style="fill: rgb(74, 61, 189);"></path><path d="M318.042,50.273h-8.577a14.218,14.218,0,0,0-14.2,14.2v9.256c0,.037.008.072.009.109s-.009.059-.009.09v38.1a3.5,3.5,0,0,0,3.5,3.5h29.981a3.5,3.5,0,0,0,3.5-3.5V73.93c0-.031-.009-.06-.009-.09s.009-.072.009-.109V64.475A14.218,14.218,0,0,0,318.042,50.273Zm-15.779,14.2a7.21,7.21,0,0,1,7.2-7.2h8.577a7.21,7.21,0,0,1,7.2,7.2v6.5a54.335,54.335,0,0,1-22.981,0Zm0,44.056V78.107a60.781,60.781,0,0,0,22.981,0v30.424Z" id="id_131" style="fill: rgb(105, 92, 224);"></path><path d="M184.408,104.775a3.555,3.555,0,1,0-3.555-3.555A3.555,3.555,0,0,0,184.408,104.775Z" id="id_132" style="fill: rgb(79, 66, 199);"></path><path d="M65.467,133.061,50.726,147.033l-3.858-3.674a3.5,3.5,0,0,0-4.827,5.069l6.265,5.967a3.5,3.5,0,0,0,4.821,0l17.155-16.259a3.5,3.5,0,1,0-4.815-5.08Z" id="id_133" style="fill: rgb(85, 73, 201);"></path><path d="M156.642,144.337a3.5,3.5,0,0,0,3.5,3.5h14.4a3.5,3.5,0,1,0,0-7h-14.4A3.5,3.5,0,0,0,156.642,144.337Z" id="id_134" style="fill: rgb(100, 88, 201);"></path><path d="M94.173,147.837h44.373a3.5,3.5,0,0,0,0-7H94.173a3.5,3.5,0,0,0,0,7Z" id="id_135" style="fill: rgb(95, 84, 199);"></path><path d="M65.467,172.36,50.726,186.333l-3.858-3.674a3.5,3.5,0,0,0-4.827,5.069l6.265,5.967a3.5,3.5,0,0,0,4.821,0l17.155-16.26a3.5,3.5,0,1,0-4.815-5.08Z" id="id_136" style="fill: rgb(91, 80, 194);"></path><path d="M94.173,187.137h80.369a3.5,3.5,0,0,0,0-7H94.173a3.5,3.5,0,0,0,0,7Z" id="id_137" style="fill: rgb(86, 74, 194);"></path><path d="M65.467,211.66,50.726,225.632l-3.858-3.674a3.5,3.5,0,0,0-4.827,5.07L48.306,233a3.5,3.5,0,0,0,4.821,0l17.155-16.26a3.5,3.5,0,1,0-4.815-5.08Z" id="id_138" style="fill: rgb(78, 66, 184);"></path><path d="M178.042,222.937a3.5,3.5,0,0,0-3.5-3.5H129.563a3.5,3.5,0,1,0,0,7h44.979A3.5,3.5,0,0,0,178.042,222.937Z" id="id_139" style="fill: rgb(79, 68, 179);"></path><path d="M107.2,219.437H94.173a3.5,3.5,0,0,0,0,7H107.2a3.5,3.5,0,1,0,0-7Z" id="id_140" style="fill: rgb(78, 66, 184);"></path><path d="M44.29,59.114a3.5,3.5,0,0,0-4.95,0l-8.6,8.6a3.5,3.5,0,0,0,4.95,4.95l8.6-8.6A3.5,3.5,0,0,0,44.29,59.114Z" id="id_141" style="fill: rgb(79, 67, 186);"></path><path d="M134.243,104.787a3.494,3.494,0,0,0,3.612-3.383,79.036,79.036,0,0,1,1.82-12.717h14.009a3.5,3.5,0,0,0,0-7H141.536a65.26,65.26,0,0,1,6.329-14.3,4.818,4.818,0,0,1,4.4-2.359,4.763,4.763,0,0,1,4.111,2.7,94.239,94.239,0,0,1,8.883,33.84,3.5,3.5,0,0,0,3.485,3.22c.093,0,.188,0,.283-.011a3.5,3.5,0,0,0,3.209-3.769,101.258,101.258,0,0,0-9.573-36.358,11.841,11.841,0,0,0-20.777-.9c-10.257,16.893-11,36.6-11.023,37.428A3.5,3.5,0,0,0,134.243,104.787Z" id="id_142" style="fill: rgb(100, 196, 58);"></path></svg>