<?xml version="1.0" ?><!DOCTYPE svg  PUBLIC '-//W3C//DTD SVG 1.1//EN'  'http://www.w3.org/Graphics/SVG/1.1/DTD/svg11.dtd'><svg enable-background="new 0 0 24 24" height="24px" id="Layer_1" version="1.1" viewBox="0 0 24 24" width="24px" xml:space="preserve" xmlns="http://www.w3.org/2000/svg" xmlns:xlink="http://www.w3.org/1999/xlink"><g><path d="M16.3,19.5h-13c-1.6,0-2.9-1.3-2.9-2.9V7.5c0-1.6,1.3-2.9,2.9-2.9h13c1.6,0,3,1.3,3,2.9v1.2L22.8,6   c0.2-0.1,0.4-0.1,0.5-0.1c0.2,0.1,0.3,0.3,0.3,0.4v11.2c0,0.2-0.1,0.4-0.3,0.4c-0.2,0.1-0.4,0.1-0.5-0.1l-3.5-2.7v1.2   C19.3,18.1,18,19.5,16.3,19.5z M3.4,5.5c-1.1,0-1.9,0.9-1.9,1.9v9.1c0,1.1,0.9,1.9,1.9,1.9h13c1.1,0,2-0.9,2-1.9v-2.2   c0-0.2,0.1-0.4,0.3-0.4c0.2-0.1,0.4-0.1,0.5,0.1l3.5,2.7V7.4l-3.5,2.7c-0.2,0.1-0.4,0.1-0.5,0.1c-0.2-0.1-0.3-0.3-0.3-0.4V7.5   c0-1.1-0.9-1.9-2-1.9H3.4z"/></g></svg>